<svg xmlns="http://www.w3.org/2000/svg" viewBox="0 0 74.68 34.63"><defs><style>.cls-1{fill:#fff;}</style></defs><title>Element 1</title><g id="Ebene_2" data-name="Ebene 2"><g id="Ebene_1-2" data-name="Ebene 1"><path class="cls-1" d="M9.2.28v1.9C15,1.16,19.76,3.75,19.76,8S15,16.41,9.2,17.43v1.9c7.29-1.27,13.2-6.56,13.2-11.83S16.49-1,9.2.28Z"/><path class="cls-1" d="M13.2,5.6V7.5C7.36,8.52,2.64,12.75,2.64,17s4.72,6.8,10.56,5.79v1.89C5.91,25.92,0,22.69,0,17.43S5.91,6.87,13.2,5.6Z"/><path class="cls-1" d="M40.34,22.87c-.05,2.9-.27,5.38-2,7.85a9.61,9.61,0,0,1-8.2,3.91c-6.25,0-10.6-4.25-10.6-10.5,0-6.45,4.38-10.7,10.79-10.7a9.25,9.25,0,0,1,9,5.56l-4.91,2.06a4.48,4.48,0,0,0-4.29-3.16c-3.4,0-5.17,3.24-5.17,6.27s1.85,6.22,5.25,6.22c2.24,0,4-1.16,4.16-3.45H30.08V22.87Z"/><path class="cls-1" d="M68.49,29.59h6.19V34H63.32V14.09h5.17Z"/><polygon class="cls-1" points="46.23 33.97 40.75 33.97 48.39 14.1 54.03 14.1 61.52 33.97 56.01 33.97 51.22 20.24 51.16 20.24 46.23 33.97"/></g></g></svg>